<?xml version="1.0" encoding="UTF-8"?><svg id="Laag_1" xmlns="http://www.w3.org/2000/svg" xmlns:xlink="http://www.w3.org/1999/xlink" viewBox="0 0 1919.2 686.3"><defs><style>.cls-1{fill:#18345e;}.cls-1,.cls-2,.cls-3,.cls-4,.cls-5,.cls-6,.cls-7,.cls-8{stroke-width:0px;}.cls-9{stroke:#005088;stroke-width:15px;}.cls-9,.cls-5,.cls-10{fill:none;}.cls-9,.cls-10{stroke-miterlimit:10;}.cls-2{fill:#075082;}.cls-3{fill:#005188;}.cls-11,.cls-12,.cls-13,.cls-14{isolation:isolate;}.cls-4{fill:#182f57;}.cls-6{fill:#005088;}.cls-7{fill:#006ea5;}.cls-12{font-size:105.09px;}.cls-12,.cls-13,.cls-14{fill:#fff;font-family:HelveticaProteusEretes-Bold, HelveticaProteusEretes;font-weight:700;}.cls-13{font-size:13.14px;}.cls-14{font-size:70.94px;}.cls-10{stroke:#fff;stroke-linecap:round;stroke-width:2px;}.cls-15{letter-spacing:-.03em;}.cls-16{letter-spacing:0em;}.cls-8{fill:#083a6b;}.cls-17{letter-spacing:.01em;}</style></defs><g id="Laag_1-2"><g id="_1"><path id="Polygon_10" class="cls-3" d="m111,123.5l33.4,55.4-33.4,55.4H44.3l-33.4-55.5,33.4-55.4h66.7s0,.1,0,.1Z"/></g><g id="_2"><path id="Polygon_7" class="cls-8" d="m179.8,274.2l59.9,99.4-59.9,99.4H59.9L0,373.6l59.9-99.4h119.9Z"/></g><g id="_3"><path id="Polygon_1" class="cls-4" d="m414.5,325l84,143.9-84,143.9h-168l-84-143.9,84-143.9h168Z"/></g><g id="_4"><path id="Polygon_2" class="cls-2" d="m584.9,339.5l33.4,55.4-33.4,55.4h-66.7l-33.4-55.4,33.4-55.4h66.7Z"/></g><g id="_5"><path id="Polygon_4" class="cls-4" d="m1029.1,315.9l74,122.6-74,122.6h-148l-74-122.6,74-122.6h148Z"/></g><g id="_6"><path id="Polygon_3" class="cls-3" d="m1300.3,346.8l102.3,169.7-102.4,169.8h-204.7l-102.3-169.8,102.3-169.7h204.8Z"/></g><g id="_7"><path id="Polygon_5" class="cls-7" d="m1573.5,330.4l56.1,93-56.1,93h-112.1l-56.1-93,56.1-93h112.1Z"/></g><g id="_8"><path id="Polygon_8" class="cls-3" d="m1827.5,283.2l83.5,138.9-83.5,138.9h-167l-83.5-138.9,83.5-138.9h167Z"/></g><g id="_9"><path id="Polygon_9" class="cls-1" d="m1870.2,71.7l49,81.2-49,81.2h-98.1l-49-81.2,49-81.2h98.1Z"/></g><rect class="cls-5" x="620.9" y="97.7" width="898.2" height="82.6"/><text class="cls-12" transform="translate(620.94 172.75)"><tspan class="cls-17" x="0" y="0">W</tspan><tspan x="100.46" y="0">in</tspan><tspan class="cls-16" x="189.9" y="0">t</tspan><tspan x="226.36" y="0">er</tspan></text><text class="cls-13" transform="translate(947.75 172.75)"><tspan x="0" y="0"> </tspan></text><text class="cls-12" transform="translate(951.44 172.75)"><tspan class="cls-15" x="0" y="0">W</tspan><tspan x="96.37" y="0">edstrijden</tspan></text><polyline class="cls-9" points="482.8 143.3 341.4 143.6 341.4 7.5 1573.2 7.5 1573.2 143.6 1535.6 143.6"/><image class="cls-11" width="492" height="160" transform="translate(1312.36 27.14) scale(.49)" xlink:href="banner_Map/Links/ED22B2B0.png"/><polygon class="cls-6" points="478.3 143 510.4 85.6 576 85.6 608.5 142.3 576.1 199.8 507.7 199.8 478.3 143"/><polyline class="cls-10" points="528.6 100.5 543.4 124.7 558.1 100.4"/><line class="cls-10" x1="543.4" y1="96.8" x2="543.4" y2="188.6"/><polyline class="cls-10" points="558.1 184.6 543.3 160.5 528.6 184.7"/><polyline class="cls-10" points="499.5 136.9 527.8 136.2 514.1 111.3"/><line class="cls-10" x1="503.7" y1="122.3" x2="583.1" y2="168.2"/><polyline class="cls-10" points="587 153.4 558.7 154.1 572.4 179"/><polyline class="cls-10" points="514.4 179 527.9 154.1 499.5 153.5"/><line class="cls-10" x1="503.8" y1="168.1" x2="583.3" y2="122.2"/><polyline class="cls-10" points="572.4 111.4 558.9 136.3 587.3 136.9"/><rect class="cls-5" x="826.2" y="208.6" width="726.8" height="122.5"/><text class="cls-14" transform="translate(826.21 259.28)"><tspan x="0" y="0">17 &amp; 18 februari 2024</tspan></text></g></svg>