<svg xmlns="http://www.w3.org/2000/svg" viewBox="0 0 1919.15 614.6"><defs><style>.cls-1{fill:#005188;}.cls-2{fill:#083a6b;}.cls-3{fill:#182f57;}.cls-4{fill:#075082;}.cls-5{fill:#006ea5;}.cls-6{fill:#18345e;}</style></defs><g id="_1" data-name="1"><path id="Polygon_10" data-name="Polygon 10" class="cls-1" d="M111.41,296.15l33.36,55.37L111.41,406.9H44.68L11.32,351.52l33.36-55.37Z" transform="translate(-0.42 -244.4)"/></g><g id="_2" data-name="2"><path id="Polygon_7" data-name="Polygon 7" class="cls-2" d="M180.17,446.85l59.92,99.4-59.92,99.41H60.34L.42,546.25l59.92-99.4Z" transform="translate(-0.42 -244.4)"/></g><g id="_3" data-name="3"><path id="Polygon_1" data-name="Polygon 1" class="cls-3" d="M414.85,497.68l84,143.89-84,143.9h-168l-84-143.9,84-143.89Z" transform="translate(-0.42 -244.4)"/></g><g id="_4" data-name="4"><path id="Polygon_2" data-name="Polygon 2" class="cls-4" d="M585.29,512.21l33.37,55.38L585.29,623H518.57l-33.36-55.37,33.36-55.38Z" transform="translate(-0.42 -244.4)"/></g><g id="_5" data-name="5"><path id="Polygon_4" data-name="Polygon 4" class="cls-3" d="M1029.45,488.61l74,122.55-74,122.56h-148l-74-122.56,74-122.55Z" transform="translate(-0.42 -244.4)"/></g><g id="_6" data-name="6"><path id="Polygon_3" data-name="Polygon 3" class="cls-1" d="M1300.66,519.47,1403,689.24,1300.66,859H1096L993.59,689.24,1096,519.47Z" transform="translate(-0.42 -244.4)"/></g><g id="_7" data-name="7"><path id="Polygon_5" data-name="Polygon 5" class="cls-5" d="M1573.92,503.13l56.06,93-56.06,93.06H1461.8l-56.06-93.06,56.06-93Z" transform="translate(-0.42 -244.4)"/></g><g id="_8" data-name="8"><path id="Polygon_8" data-name="Polygon 8" class="cls-1" d="M1827.89,455.92l83.52,138.9-83.52,138.9H1660.84l-83.52-138.9,83.52-138.9Z" transform="translate(-0.42 -244.4)"/></g><g id="_9" data-name="9"><path id="Polygon_9" data-name="Polygon 9" class="cls-6" d="M1870.55,244.4l49,81.25-49,81.25h-98l-49-81.25,49-81.25Z" transform="translate(-0.42 -244.4)"/></g></svg>