<svg xmlns="http://www.w3.org/2000/svg" viewBox="0 0 1920 350"><defs><style>.cls-1{fill:#083a6b;}.cls-2{fill:#182f57;}.cls-3{fill:#075082;}.cls-4{fill:#005188;}.cls-5{fill:#006ea5;}</style></defs><g id="_2" data-name="2"><path id="Polygon_7" data-name="Polygon 7" class="cls-1" d="M180.17-112.15l59.92,99.4L180.17,86.66H60.34L.42-12.75l59.92-99.4Z"/></g><g id="_3" data-name="3"><path id="Polygon_1" data-name="Polygon 1" class="cls-2" d="M414.85-61.32l84,143.89-84,143.9h-168l-84-143.9,84-143.89Z"/></g><g id="_4" data-name="4"><path id="Polygon_2" data-name="Polygon 2" class="cls-3" d="M585.29-46.79,618.66,8.59,585.29,64H518.57L485.21,8.59l33.36-55.38Z"/></g><g id="_5" data-name="5"><path id="Polygon_4" data-name="Polygon 4" class="cls-2" d="M1029.45-70.39l74,122.55-74,122.56h-148l-74-122.56,74-122.55Z"/></g><g id="_6" data-name="6"><path id="Polygon_3" data-name="Polygon 3" class="cls-4" d="M1300.66-39.53,1403,130.24,1300.66,300H1096L993.59,130.24,1096-39.53Z"/></g><g id="_7" data-name="7"><path id="Polygon_5" data-name="Polygon 5" class="cls-5" d="M1573.92-55.87,1630,37.18l-56.06,93.06H1461.8l-56.06-93.06,56.06-93Z"/></g><g id="_8" data-name="8"><path id="Polygon_8" data-name="Polygon 8" class="cls-4" d="M1827.89-103.08l83.52,138.9-83.52,138.9H1660.84l-83.52-138.9,83.52-138.9Z"/></g></svg>